  0
SECTION
  2
HEADER
  9
$ACADVER
  1
AC1009
  9
$INSBASE
 10
0.0
 20
0.0
 30
0.0
  9
$EXTMIN
 10
9.4542305035585041
 20
204.47876289180829
 30
-0.0003603453316821
  9
$EXTMAX
 10
471.72123401841992
 20
292.70972049319317
 30
0.0005405729860506
  9
$LIMMIN
 10
0.0
 20
0.0
  9
$LIMMAX
 10
12.0
 20
9.0
  9
$ORTHOMODE
 70
     1
  9
$REGENMODE
 70
     1
  9
$FILLMODE
 70
     1
  9
$QTEXTMODE
 70
     0
  9
$MIRRTEXT
 70
     0
  9
$DRAGMODE
 70
     2
  9
$LTSCALE
 40
1.0
  9
$OSMODE
 70
    36
  9
$ATTMODE
 70
     1
  9
$TEXTSIZE
 40
0.2
  9
$TRACEWID
 40
0.05
  9
$TEXTSTYLE
  7
STANDARD
  9
$CLAYER
  8
BRANDLIJN
  9
$CELTYPE
  6
BYLAYER
  9
$CECOLOR
 62
   256
  9
$DIMSCALE
 40
1.0
  9
$DIMASZ
 40
0.18
  9
$DIMEXO
 40
0.0625
  9
$DIMDLI
 40
0.38
  9
$DIMRND
 40
0.0
  9
$DIMDLE
 40
0.0
  9
$DIMEXE
 40
0.18
  9
$DIMTP
 40
0.0
  9
$DIMTM
 40
0.0
  9
$DIMTXT
 40
0.18
  9
$DIMCEN
 40
0.09
  9
$DIMTSZ
 40
0.0
  9
$DIMTOL
 70
     0
  9
$DIMLIM
 70
     0
  9
$DIMTIH
 70
     1
  9
$DIMTOH
 70
     1
  9
$DIMSE1
 70
     0
  9
$DIMSE2
 70
     0
  9
$DIMTAD
 70
     0
  9
$DIMZIN
 70
     0
  9
$DIMBLK
  1

  9
$DIMASO
 70
     1
  9
$DIMSHO
 70
     1
  9
$DIMPOST
  1

  9
$DIMAPOST
  1

  9
$DIMALT
 70
     0
  9
$DIMALTD
 70
     2
  9
$DIMALTF
 40
25.399999999999999
  9
$DIMLFAC
 40
1.0
  9
$DIMTOFL
 70
     0
  9
$DIMTVP
 40
0.0
  9
$DIMTIX
 70
     0
  9
$DIMSOXD
 70
     0
  9
$DIMSAH
 70
     0
  9
$DIMBLK1
  1

  9
$DIMBLK2
  1

  9
$DIMSTYLE
  2
STANDARD
  9
$DIMCLRD
 70
     0
  9
$DIMCLRE
 70
     0
  9
$DIMCLRT
 70
     0
  9
$DIMTFAC
 40
1.0
  9
$DIMGAP
 40
0.09
  9
$LUNITS
 70
     2
  9
$LUPREC
 70
     4
  9
$SKETCHINC
 40
0.1
  9
$FILLETRAD
 40
0.5
  9
$AUNITS
 70
     0
  9
$AUPREC
 70
     0
  9
$MENU
  1
.
  9
$ELEVATION
 40
0.0
  9
$PELEVATION
 40
0.0
  9
$THICKNESS
 40
0.0
  9
$LIMCHECK
 70
     0
  9
$BLIPMODE
 70
     0
  9
$CHAMFERA
 40
0.0
  9
$CHAMFERB
 40
0.0
  9
$SKPOLY
 70
     0
  9
$TDCREATE
 40
2454293.5291201621
  9
$TDUPDATE
 40
2454342.6866833912
  9
$TDINDWG
 40
0.0084580556
  9
$TDUSRTIMER
 40
0.0084580556
  9
$USRTIMER
 70
     1
  9
$ANGBASE
 50
0.0
  9
$ANGDIR
 70
     0
  9
$PDMODE
 70
     0
  9
$PDSIZE
 40
0.0
  9
$PLINEWID
 40
0.0
  9
$COORDS
 70
     1
  9
$SPLFRAME
 70
     0
  9
$SPLINETYPE
 70
     6
  9
$SPLINESEGS
 70
     8
  9
$ATTDIA
 70
     0
  9
$ATTREQ
 70
     1
  9
$HANDLING
 70
     1
  9
$HANDSEED
  5
233
  9
$SURFTAB1
 70
     6
  9
$SURFTAB2
 70
     6
  9
$SURFTYPE
 70
     6
  9
$SURFU
 70
     6
  9
$SURFV
 70
     6
  9
$UCSNAME
  2

  9
$UCSORG
 10
0.0
 20
0.0
 30
0.0
  9
$UCSXDIR
 10
1.0
 20
0.0
 30
0.0
  9
$UCSYDIR
 10
0.0
 20
1.0
 30
0.0
  9
$PUCSNAME
  2

  9
$PUCSORG
 10
0.0
 20
0.0
 30
0.0
  9
$PUCSXDIR
 10
1.0
 20
0.0
 30
0.0
  9
$PUCSYDIR
 10
0.0
 20
1.0
 30
0.0
  9
$USERI1
 70
     0
  9
$USERI2
 70
     0
  9
$USERI3
 70
     0
  9
$USERI4
 70
     0
  9
$USERI5
 70
     0
  9
$USERR1
 40
0.0
  9
$USERR2
 40
0.0
  9
$USERR3
 40
0.0
  9
$USERR4
 40
0.0
  9
$USERR5
 40
0.0
  9
$WORLDVIEW
 70
     1
  9
$SHADEDGE
 70
     3
  9
$SHADEDIF
 70
    70
  9
$TILEMODE
 70
     1
  9
$MAXACTVP
 70
    64
  9
$PLIMCHECK
 70
     0
  9
$PEXTMIN
 10
0.0
 20
0.0
 30
0.0
  9
$PEXTMAX
 10
0.0
 20
0.0
 30
0.0
  9
$PLIMMIN
 10
0.0
 20
0.0
  9
$PLIMMAX
 10
12.0
 20
9.0
  9
$UNITMODE
 70
     0
  9
$VISRETAIN
 70
     1
  9
$PLINEGEN
 70
     0
  9
$PSLTSCALE
 70
     1
  0
ENDSEC
  0
SECTION
  2
TABLES
  0
TABLE
  2
VPORT
 70
     2
  0
VPORT
  2
*ACTIVE
 70
     0
 10
0.0
 20
0.0
 11
1.0
 21
1.0
 12
240.58773226098921
 22
248.5942416925007
 13
0.0
 23
0.0
 14
0.5
 24
0.5
 15
0.5
 25
0.5
 16
0.0
 26
0.0
 36
1.0
 17
0.0
 27
0.0
 37
0.0
 40
310.71935318257351
 41
1.4947245017584989
 42
50.0
 43
0.0
 44
0.0
 50
0.0
 51
0.0
 71
     0
 72
  1000
 73
     1
 74
     3
 75
     0
 76
     0
 77
     0
 78
     0
  0
ENDTAB
  0
TABLE
  2
LTYPE
 70
     1
  0
LTYPE
  2
CONTINUOUS
 70
     0
  3
Solid line
 72
    65
 73
     0
 40
0.0
  0
ENDTAB
  0
TABLE
  2
LAYER
 70
     3
  0
LAYER
  2
0
 70
     0
 62
     7
  6
CONTINUOUS
  0
LAYER
  2
DEFPOINTS
 70
     0
 62
     7
  6
CONTINUOUS
  0
LAYER
  2
BRANDLIJN
 70
     0
 62
    93
  6
CONTINUOUS
  0
ENDTAB
  0
TABLE
  2
STYLE
 70
     1
  0
STYLE
  2
STANDARD
 70
     0
 40
0.0
 41
1.0
 50
0.0
 71
     0
 42
0.2
  3
txt
  4

  0
ENDTAB
  0
TABLE
  2
VIEW
 70
     0
  0
ENDTAB
  0
TABLE
  2
UCS
 70
     0
  0
ENDTAB
  0
TABLE
  2
APPID
 70
     1
  0
APPID
  2
ACAD
 70
     0
  0
ENDTAB
  0
TABLE
  2
DIMSTYLE
 70
     1
  0
DIMSTYLE
  2
STANDARD
 70
     0
  3

  4

  5

  6

  7

 40
1.0
 41
0.18
 42
0.0625
 43
0.38
 44
0.18
 45
0.0
 46
0.0
 47
0.0
 48
0.0
140
0.18
141
0.09
142
0.0
143
25.399999999999999
144
1.0
145
0.0
146
1.0
147
0.09
 71
     0
 72
     0
 73
     1
 74
     1
 75
     0
 76
     0
 77
     0
 78
     0
170
     0
171
     2
172
     0
173
     0
174
     0
175
     0
176
     0
177
     0
178
     0
  0
ENDTAB
  0
ENDSEC
  0
SECTION
  2
BLOCKS
  0
BLOCK
  8
0
  2
$MODEL_SPACE
 70
     0
 10
0.0
 20
0.0
 30
0.0
  3
$MODEL_SPACE
  1

  0
ENDBLK
  5
21
  8
0
  0
BLOCK
 67
     1
  8
0
  2
$PAPER_SPACE
 70
     0
 10
0.0
 20
0.0
 30
0.0
  3
$PAPER_SPACE
  1

  0
ENDBLK
  5
5B
 67
     1
  8
0
  0
BLOCK
  8
0
  2
*D1
 70
     1
 10
0.0
 20
0.0
 30
0.0
  3
*D1
  1

  0
LINE
  5
218
  8
BRANDLIJN
 62
     0
 10
32.586641467121197
 20
292.15973390194898
 30
0.0
 11
32.586641467121197
 21
321.81076510272629
 31
0.0
  0
LINE
  5
219
  8
BRANDLIJN
 62
     0
 10
450.58664146712073
 20
292.15973390194898
 30
0.0
 11
450.58664146712073
 21
321.81076510272629
 31
0.0
  0
LINE
  5
21A
  8
BRANDLIJN
 62
     0
 10
32.766641467121197
 20
321.63076510272629
 30
0.0
 11
240.95664146712099
 21
321.63076510272629
 31
0.0
  0
LINE
  5
21B
  8
BRANDLIJN
 62
     0
 10
450.40664146712072
 20
321.63076510272629
 30
0.0
 11
242.21664146712101
 21
321.63076510272629
 31
0.0
  0
SOLID
  5
21C
  8
BRANDLIJN
 62
     0
 10
32.766641467121197
 20
321.6607651027262
 30
0.0
 11
32.766641467121197
 21
321.60076510272631
 31
0.0
 12
32.586641467121197
 22
321.63076510272629
 32
0.0
 13
32.586641467121197
 23
321.63076510272629
 33
0.0
  0
SOLID
  5
21D
  8
BRANDLIJN
 62
     0
 10
450.40664146712072
 20
321.6607651027262
 30
0.0
 11
450.40664146712072
 21
321.60076510272631
 31
0.0
 12
450.58664146712073
 22
321.63076510272629
 32
0.0
 13
450.58664146712073
 23
321.63076510272629
 33
0.0
  0
INSERT
  5
21E
  8
BRANDLIJN
  2
*U2
 10
0.0
 20
0.0
 30
0.0
  0
POINT
  5
21F
  8
DEFPOINTS
 62
     0
 10
32.586641467121197
 20
292.09723390194898
 30
0.0
  0
POINT
  5
220
  8
DEFPOINTS
 62
     0
 10
450.58664146712073
 20
292.09723390194898
 30
0.0
  0
POINT
  5
221
  8
DEFPOINTS
 62
     0
 10
450.58664146712073
 20
321.63076510272629
 30
0.0
  0
ENDBLK
  5
20B
  8
0
  0
BLOCK
  8
0
  2
*U2
 70
     1
 10
0.0
 20
0.0
 30
0.0
  3
*U2
  1

  0
TEXT
  5
230
  8
BRANDLIJN
 62
     0
 10
241.04664146712099
 20
321.54076510272631
 30
0.0
 40
0.18
  1
418.0000
  0
ENDBLK
  5
232
  8
0
  0
ENDSEC
  0
SECTION
  2
ENTITIES
  0
CIRCLE
  5
11B
  8
BRANDLIJN
 10
464.5909246521212
 20
248.59295071694959
 30
0.0
 40
4.5
  0
CIRCLE
  5
11C
  8
BRANDLIJN
 10
16.582358282120659
 20
248.59295071694959
 30
0.0
 40
4.5
  0
CIRCLE
  5
11D
  8
BRANDLIJN
 10
431.58664146712073
 20
282.59723390194921
 30
0.0
 40
5.5
  0
CIRCLE
  5
11E
  8
BRANDLIJN
 10
49.586641467120742
 20
282.59723390194921
 30
0.0
 40
5.5
  0
CIRCLE
  5
11F
  8
BRANDLIJN
 10
49.586641467120742
 20
214.58866753194911
 30
0.0
 40
5.5
  0
CIRCLE
  5
120
  8
BRANDLIJN
 10
431.58664146712073
 20
214.58866753194911
 30
0.0
 40
5.5
  0
LINE
  5
121
  8
BRANDLIJN
 10
440.08464146712117
 20
235.09295071694939
 30
0.0
 11
471.09092465212132
 21
235.09295071694939
 31
0.0
  0
LINE
  5
122
  8
BRANDLIJN
 10
471.59092465212132
 20
235.59295071694939
 30
0.0
 11
471.59092465212132
 21
261.59295071694942
 31
0.0
  0
LINE
  5
123
  8
BRANDLIJN
 10
471.09092465212132
 20
262.09295071694942
 30
0.0
 11
440.08464146712117
 21
262.09295071694942
 31
0.0
  0
LINE
  5
124
  8
BRANDLIJN
 10
440.08464146712117
 20
262.09295071694942
 30
0.0
 11
440.08464146712117
 21
262.59295071694942
 31
0.0
  0
LINE
  5
125
  8
BRANDLIJN
 10
440.08464146712117
 20
262.59295071694942
 30
0.0
 11
448.58664146712073
 21
262.59295071694942
 31
0.0
  0
LINE
  5
126
  8
BRANDLIJN
 10
448.58664146712073
 20
262.59295071694942
 30
0.0
 11
448.58664146712073
 21
270.09823390194919
 31
0.0
  0
LINE
  5
127
  8
BRANDLIJN
 10
448.58664146712073
 20
270.09823390194919
 30
0.0
 11
453.08664146712073
 21
270.09823390194919
 31
0.0
  0
LINE
  5
128
  8
BRANDLIJN
 10
453.58664146712073
 20
270.59823390194919
 30
0.0
 11
453.58664146712073
 21
289.09723390194898
 31
0.0
  0
LINE
  5
129
  8
BRANDLIJN
 10
453.08664146712073
 20
289.59723390194898
 30
0.0
 11
448.58664146712073
 21
289.59723390194898
 31
0.0
  0
LINE
  5
12A
  8
BRANDLIJN
 10
448.58664146712073
 20
289.59723390194898
 30
0.0
 11
448.58664146712073
 21
292.09723390194898
 31
0.0
  0
LINE
  5
12B
  8
BRANDLIJN
 10
448.08664146712073
 20
292.59723390194898
 30
0.0
 11
33.086641467121197
 21
292.59723390194898
 31
0.0
  0
LINE
  5
12C
  8
BRANDLIJN
 10
32.586641467121197
 20
292.09723390194898
 30
0.0
 11
32.586641467121197
 21
289.59723390194898
 31
0.0
  0
LINE
  5
12D
  8
BRANDLIJN
 10
32.586641467121197
 20
289.59723390194898
 30
0.0
 11
28.086641467120739
 21
289.59723390194898
 31
0.0
  0
LINE
  5
12E
  8
BRANDLIJN
 10
27.586641467120739
 20
289.09723390194898
 30
0.0
 11
27.586641467120739
 21
270.59823390194919
 31
0.0
  0
LINE
  5
12F
  8
BRANDLIJN
 10
28.086641467120739
 20
270.09823390194919
 30
0.0
 11
32.586641467121197
 21
270.09823390194919
 31
0.0
  0
LINE
  5
130
  8
BRANDLIJN
 10
32.586641467121197
 20
270.09823390194919
 30
0.0
 11
32.586641467121197
 21
262.59295071694942
 31
0.0
  0
LINE
  5
131
  8
BRANDLIJN
 10
32.586641467121197
 20
262.59295071694942
 30
0.0
 11
41.088641467121143
 21
262.59295071694942
 31
0.0
  0
LINE
  5
132
  8
BRANDLIJN
 10
41.088641467121143
 20
262.59295071694942
 30
0.0
 11
41.088641467121143
 21
262.09295071694942
 31
0.0
  0
LINE
  5
133
  8
BRANDLIJN
 10
41.088641467121143
 20
262.09295071694942
 30
0.0
 11
10.08235828212112
 21
262.09295071694942
 31
0.0
  0
LINE
  5
134
  8
BRANDLIJN
 10
9.5823582821211204
 20
261.59295071694942
 30
0.0
 11
9.5823582821211204
 21
235.59295071694939
 31
0.0
  0
LINE
  5
135
  8
BRANDLIJN
 10
10.08235828212112
 20
235.09295071694939
 30
0.0
 11
41.088641467121143
 21
235.09295071694939
 31
0.0
  0
LINE
  5
136
  8
BRANDLIJN
 10
41.088641467121143
 20
235.09295071694939
 30
0.0
 11
41.088641467121143
 21
234.59295071694939
 31
0.0
  0
LINE
  5
137
  8
BRANDLIJN
 10
41.088641467121143
 20
234.59295071694939
 30
0.0
 11
32.586641467121197
 21
234.59295071694939
 31
0.0
  0
LINE
  5
138
  8
BRANDLIJN
 10
32.586641467121197
 20
234.59295071694939
 30
0.0
 11
32.586641467121197
 21
227.08766753194959
 31
0.0
  0
LINE
  5
139
  8
BRANDLIJN
 10
32.586641467121197
 20
227.08766753194959
 30
0.0
 11
28.086641467120749
 21
227.08766753194959
 31
0.0
  0
LINE
  5
13A
  8
BRANDLIJN
 10
27.586641467120749
 20
226.58766753194959
 30
0.0
 11
27.586641467120739
 21
208.08866753194889
 31
0.0
  0
LINE
  5
13B
  8
BRANDLIJN
 10
28.086641467120739
 20
207.5886675319488
 30
0.0
 11
32.586641467121197
 21
207.5886675319488
 31
0.0
  0
LINE
  5
13C
  8
BRANDLIJN
 10
32.586641467121197
 20
207.5886675319488
 30
0.0
 11
32.586641467121197
 21
205.0886675319488
 31
0.0
  0
LINE
  5
13D
  8
BRANDLIJN
 10
33.086641467121197
 20
204.58866753194889
 30
0.0
 11
448.08664146712073
 21
204.5886675319488
 31
0.0
  0
LINE
  5
13E
  8
BRANDLIJN
 10
448.58664146712073
 20
205.0886675319488
 30
0.0
 11
448.58664146712073
 21
207.5886675319488
 31
0.0
  0
LINE
  5
13F
  8
BRANDLIJN
 10
448.58664146712073
 20
207.5886675319488
 30
0.0
 11
453.08664146712073
 21
207.5886675319488
 31
0.0
  0
LINE
  5
140
  8
BRANDLIJN
 10
453.58664146712073
 20
208.08866753194889
 30
0.0
 11
453.58664146712073
 21
226.58766753194951
 31
0.0
  0
LINE
  5
141
  8
BRANDLIJN
 10
453.08664146712073
 20
227.08766753194951
 30
0.0
 11
448.58664146712073
 21
227.08766753194959
 31
0.0
  0
LINE
  5
142
  8
BRANDLIJN
 10
448.58664146712073
 20
227.08766753194959
 30
0.0
 11
448.58664146712073
 21
234.59295071694939
 31
0.0
  0
LINE
  5
143
  8
BRANDLIJN
 10
448.58664146712073
 20
234.59295071694939
 30
0.0
 11
440.08464146712117
 21
234.59295071694939
 31
0.0
  0
LINE
  5
144
  8
BRANDLIJN
 10
440.08464146712117
 20
234.59295071694939
 30
0.0
 11
440.08464146712117
 21
235.09295071694939
 31
0.0
  0
ARC
  5
1D8
  8
BRANDLIJN
 10
33.086641467121197
 20
292.09723390194898
 30
0.0
 40
0.5
 50
90.0
 51
180.0
  0
ARC
  5
1DB
  8
BRANDLIJN
 10
33.086641467121197
 20
205.0886675319488
 30
0.0
 40
0.5
 50
180.0
 51
270.0
  0
ARC
  5
1DC
  8
BRANDLIJN
 10
28.086641467120739
 20
208.08866753194889
 30
0.0
 40
0.5
 50
180.0
 51
270.0
  0
ARC
  5
1DD
  8
BRANDLIJN
 10
28.086641467120749
 20
226.58766753194959
 30
0.0
 40
0.5
 50
90.0
 51
180.0
  0
ARC
  5
1DE
  8
BRANDLIJN
 10
28.086641467120739
 20
270.59823390194919
 30
0.0
 40
0.5
 50
180.0
 51
270.0
  0
ARC
  5
1DF
  8
BRANDLIJN
 10
28.086641467120739
 20
289.09723390194898
 30
0.0
 40
0.5
 50
90.0
 51
180.0
  0
ARC
  5
1E0
  8
BRANDLIJN
 10
10.08235828212112
 20
261.59295071694942
 30
0.0
 40
0.5
 50
90.0
 51
180.0
  0
ARC
  5
1E1
  8
BRANDLIJN
 10
10.08235828212112
 20
235.59295071694939
 30
0.0
 40
0.5
 50
180.0
 51
270.0
  0
ARC
  5
1E2
  8
BRANDLIJN
 10
471.09092465212132
 20
261.59295071694942
 30
0.0
 40
0.5
 50
0.0
 51
90.0
  0
ARC
  5
1E3
  8
BRANDLIJN
 10
471.09092465212132
 20
235.59295071694939
 30
0.0
 40
0.5
 50
270.0
 51
359.99999999999989
  0
ARC
  5
1E4
  8
BRANDLIJN
 10
453.08664146712073
 20
226.58766753194951
 30
0.0
 40
0.5
 50
0.0
 51
90.0
  0
ARC
  5
1E5
  8
BRANDLIJN
 10
453.08664146712073
 20
208.08866753194889
 30
0.0
 40
0.5
 50
270.0
 51
0.0
  0
ARC
  5
1E6
  8
BRANDLIJN
 10
448.08664146712073
 20
205.0886675319488
 30
0.0
 40
0.5
 50
270.0
 51
0.0
  0
ARC
  5
1E7
  8
BRANDLIJN
 10
453.08664146712073
 20
270.59823390194919
 30
0.0
 40
0.5
 50
270.0
 51
0.0
  0
ARC
  5
1E8
  8
BRANDLIJN
 10
453.08664146712073
 20
289.09723390194898
 30
0.0
 40
0.5
 50
0.0
 51
90.0
  0
ARC
  5
1E9
  8
BRANDLIJN
 10
448.08664146712073
 20
292.09723390194898
 30
0.0
 40
0.5
 50
0.0
 51
90.0
  0
ENDSEC
  0
EOF
