  0
SECTION
  2
HEADER
  9
$ACADVER
  1
AC1009
  9
$INSBASE
 10
0.0
 20
0.0
 30
0.0
  9
$EXTMIN
 10
509.4282523611127
 20
-724.96711330221308
 30
0.0
  9
$EXTMAX
 10
2089.5708570330271
 20
1297.5271768305231
 30
11.80869674682617
  9
$LIMMIN
 10
0.0
 20
0.0
  9
$LIMMAX
 10
420.0
 20
297.0
  9
$ORTHOMODE
 70
     1
  9
$REGENMODE
 70
     1
  9
$FILLMODE
 70
     1
  9
$QTEXTMODE
 70
     0
  9
$MIRRTEXT
 70
     0
  9
$DRAGMODE
 70
     2
  9
$LTSCALE
 40
1.0
  9
$OSMODE
 70
   167
  9
$ATTMODE
 70
     1
  9
$TEXTSIZE
 40
2.5
  9
$TRACEWID
 40
1.0
  9
$TEXTSTYLE
  7
STANDARD
  9
$CLAYER
  8
0
  9
$CELTYPE
  6
BYLAYER
  9
$CECOLOR
 62
   256
  9
$DIMSCALE
 40
1.0
  9
$DIMASZ
 40
2.5
  9
$DIMEXO
 40
0.625
  9
$DIMDLI
 40
3.75
  9
$DIMRND
 40
0.0
  9
$DIMDLE
 40
0.0
  9
$DIMEXE
 40
1.25
  9
$DIMTP
 40
0.0
  9
$DIMTM
 40
0.0
  9
$DIMTXT
 40
2.5
  9
$DIMCEN
 40
2.5
  9
$DIMTSZ
 40
0.0
  9
$DIMTOL
 70
     0
  9
$DIMLIM
 70
     0
  9
$DIMTIH
 70
     0
  9
$DIMTOH
 70
     0
  9
$DIMSE1
 70
     0
  9
$DIMSE2
 70
     0
  9
$DIMTAD
 70
     1
  9
$DIMZIN
 70
     8
  9
$DIMBLK
  1

  9
$DIMASO
 70
     1
  9
$DIMSHO
 70
     1
  9
$DIMPOST
  1

  9
$DIMAPOST
  1

  9
$DIMALT
 70
     0
  9
$DIMALTD
 70
     3
  9
$DIMALTF
 40
0.03937007874016
  9
$DIMLFAC
 40
1.0
  9
$DIMTOFL
 70
     1
  9
$DIMTVP
 40
0.0
  9
$DIMTIX
 70
     0
  9
$DIMSOXD
 70
     0
  9
$DIMSAH
 70
     0
  9
$DIMBLK1
  1

  9
$DIMBLK2
  1

  9
$DIMSTYLE
  2
ISO-25
  9
$DIMCLRD
 70
     0
  9
$DIMCLRE
 70
     0
  9
$DIMCLRT
 70
     0
  9
$DIMTFAC
 40
1.0
  9
$DIMGAP
 40
0.625
  9
$LUNITS
 70
     2
  9
$LUPREC
 70
     4
  9
$SKETCHINC
 40
1.0
  9
$FILLETRAD
 40
0.0
  9
$AUNITS
 70
     0
  9
$AUPREC
 70
     0
  9
$MENU
  1
.
  9
$ELEVATION
 40
0.0
  9
$PELEVATION
 40
0.0
  9
$THICKNESS
 40
0.0
  9
$LIMCHECK
 70
     0
  9
$BLIPMODE
 70
     0
  9
$CHAMFERA
 40
0.0
  9
$CHAMFERB
 40
0.0
  9
$SKPOLY
 70
     0
  9
$TDCREATE
 40
2454431.6557196761
  9
$TDUPDATE
 40
2454431.674227674
  9
$TDINDWG
 40
0.0199977662
  9
$TDUSRTIMER
 40
0.0199977662
  9
$USRTIMER
 70
     1
  9
$ANGBASE
 50
0.0
  9
$ANGDIR
 70
     0
  9
$PDMODE
 70
     0
  9
$PDSIZE
 40
0.0
  9
$PLINEWID
 40
0.0
  9
$COORDS
 70
     2
  9
$SPLFRAME
 70
     0
  9
$SPLINETYPE
 70
     6
  9
$SPLINESEGS
 70
     8
  9
$ATTDIA
 70
     0
  9
$ATTREQ
 70
     1
  9
$HANDLING
 70
     1
  9
$HANDSEED
  5
5F
  9
$SURFTAB1
 70
     6
  9
$SURFTAB2
 70
     6
  9
$SURFTYPE
 70
     6
  9
$SURFU
 70
     6
  9
$SURFV
 70
     6
  9
$UCSNAME
  2

  9
$UCSORG
 10
0.0
 20
0.0
 30
0.0
  9
$UCSXDIR
 10
1.0
 20
0.0
 30
0.0
  9
$UCSYDIR
 10
0.0
 20
1.0
 30
0.0
  9
$PUCSNAME
  2

  9
$PUCSORG
 10
0.0
 20
0.0
 30
0.0
  9
$PUCSXDIR
 10
1.0
 20
0.0
 30
0.0
  9
$PUCSYDIR
 10
0.0
 20
1.0
 30
0.0
  9
$USERI1
 70
     0
  9
$USERI2
 70
     0
  9
$USERI3
 70
     0
  9
$USERI4
 70
     0
  9
$USERI5
 70
     0
  9
$USERR1
 40
0.0
  9
$USERR2
 40
0.0
  9
$USERR3
 40
0.0
  9
$USERR4
 40
0.0
  9
$USERR5
 40
0.0
  9
$WORLDVIEW
 70
     1
  9
$SHADEDGE
 70
     3
  9
$SHADEDIF
 70
    70
  9
$TILEMODE
 70
     1
  9
$MAXACTVP
 70
    64
  9
$PLIMCHECK
 70
     0
  9
$PEXTMIN
 10
0.0
 20
0.0
 30
0.0
  9
$PEXTMAX
 10
0.0
 20
0.0
 30
0.0
  9
$PLIMMIN
 10
0.0
 20
0.0
  9
$PLIMMAX
 10
12.0
 20
9.0
  9
$UNITMODE
 70
     0
  9
$VISRETAIN
 70
     1
  9
$PLINEGEN
 70
     0
  9
$PSLTSCALE
 70
     1
  0
ENDSEC
  0
SECTION
  2
TABLES
  0
TABLE
  2
VPORT
 70
     1
  0
VPORT
  2
*ACTIVE
 70
     0
 10
0.0
 20
0.0
 11
1.0
 21
1.0
 12
829.05497702747471
 22
784.20867309928531
 13
0.0
 23
0.0
 14
10.0
 24
10.0
 15
10.0
 25
10.0
 16
0.0
 26
0.0
 36
1.0
 17
0.0
 27
0.0
 37
0.0
 40
853.63314522914698
 41
1.74922600619195
 42
50.0
 43
0.0
 44
0.0
 50
0.0
 51
0.0
 71
     0
 72
  1000
 73
     1
 74
     3
 75
     0
 76
     0
 77
     0
 78
     0
  0
ENDTAB
  0
TABLE
  2
LTYPE
 70
     1
  0
LTYPE
  2
CONTINUOUS
 70
     0
  3
Solid line
 72
    65
 73
     0
 40
0.0
  0
ENDTAB
  0
TABLE
  2
LAYER
 70
     2
  0
LAYER
  2
0
 70
     0
 62
     7
  6
CONTINUOUS
  0
LAYER
  2
BRANDLIJN
 70
     0
 62
    93
  6
CONTINUOUS
  0
ENDTAB
  0
TABLE
  2
STYLE
 70
     1
  0
STYLE
  2
STANDARD
 70
     0
 40
0.0
 41
1.0
 50
0.0
 71
     0
 42
2.5
  3
txt
  4

  0
ENDTAB
  0
TABLE
  2
VIEW
 70
     0
  0
ENDTAB
  0
TABLE
  2
UCS
 70
     0
  0
ENDTAB
  0
TABLE
  2
APPID
 70
     1
  0
APPID
  2
ACAD
 70
     0
  0
ENDTAB
  0
TABLE
  2
DIMSTYLE
 70
     1
  0
DIMSTYLE
  2
ISO-25
 70
     0
  3

  4

  5

  6

  7

 40
1.0
 41
2.5
 42
0.625
 43
3.75
 44
1.25
 45
0.0
 46
0.0
 47
0.0
 48
0.0
140
2.5
141
2.5
142
0.0
143
0.03937007874016
144
1.0
145
0.0
146
1.0
147
0.625
 71
     0
 72
     0
 73
     0
 74
     0
 75
     0
 76
     0
 77
     1
 78
     8
170
     0
171
     3
172
     1
173
     0
174
     0
175
     0
176
     0
177
     0
178
     0
  0
ENDTAB
  0
ENDSEC
  0
SECTION
  2
BLOCKS
  0
BLOCK
  8
0
  2
$MODEL_SPACE
 70
     0
 10
0.0
 20
0.0
 30
0.0
  3
$MODEL_SPACE
  1

  0
ENDBLK
  5
9
  8
0
  0
BLOCK
 67
     1
  8
0
  2
$PAPER_SPACE
 70
     0
 10
0.0
 20
0.0
 30
0.0
  3
$PAPER_SPACE
  1

  0
ENDBLK
  5
E
 67
     1
  8
0
  0
ENDSEC
  0
SECTION
  2
ENTITIES
  0
LINE
  5
28
  8
BRANDLIJN
 39
1.0
 10
984.61494975598487
 20
605.94487673671097
 30
0.0
 11
984.61494975598487
 21
606.44487673671097
 31
0.0
  0
LINE
  5
2A
  8
BRANDLIJN
 39
1.0
 10
993.11694975598436
 20
605.94487673671097
 30
0.0
 11
984.61494975598487
 21
605.94487673671097
 31
0.0
  0
LINE
  5
2B
  8
BRANDLIJN
 39
1.0
 10
993.11694975598436
 20
598.43959355171125
 30
0.0
 11
993.11694975598436
 21
605.94487673671097
 31
0.0
  0
LINE
  5
2C
  8
BRANDLIJN
 39
1.0
 10
998.11694975598448
 20
598.43959355171125
 30
0.0
 11
993.11694975598436
 21
598.43959355171125
 31
0.0
  0
LINE
  5
2D
  8
BRANDLIJN
 39
1.0
 10
998.11694975598448
 20
578.94059355171055
 30
0.0
 11
998.11694975598448
 21
598.43959355171125
 31
0.0
  0
LINE
  5
2E
  8
BRANDLIJN
 39
1.0
 10
993.11694975598436
 20
578.94059355171055
 30
0.0
 11
998.11694975598448
 21
578.94059355171055
 31
0.0
  0
LINE
  5
2F
  8
BRANDLIJN
 39
1.0
 10
993.11694975598436
 20
575.94059355171055
 30
0.0
 11
993.11694975598436
 21
578.94059355171055
 31
0.0
  0
LINE
  5
30
  8
BRANDLIJN
 39
1.0
 10
551.11694975598493
 20
575.94059355171055
 30
0.0
 11
993.11694975598436
 21
575.94059355171055
 31
0.0
  0
LINE
  5
31
  8
BRANDLIJN
 39
1.0
 10
551.11694975598493
 20
578.94059355171055
 30
0.0
 11
551.11694975598493
 21
575.94059355171055
 31
0.0
  0
LINE
  5
32
  8
BRANDLIJN
 39
1.0
 10
546.11694975598436
 20
578.94059355171055
 30
0.0
 11
551.11694975598493
 21
578.94059355171055
 31
0.0
  0
LINE
  5
33
  8
BRANDLIJN
 39
1.0
 10
546.11694975598436
 20
598.43959355171125
 30
0.0
 11
546.11694975598436
 21
578.94059355171055
 31
0.0
  0
LINE
  5
34
  8
BRANDLIJN
 39
1.0
 10
551.11694975598493
 20
598.43959355171125
 30
0.0
 11
546.11694975598436
 21
598.43959355171125
 31
0.0
  0
LINE
  5
35
  8
BRANDLIJN
 39
1.0
 10
551.11694975598493
 20
605.94487673671097
 30
0.0
 11
551.11694975598493
 21
598.43959355171125
 31
0.0
  0
LINE
  5
36
  8
BRANDLIJN
 39
1.0
 10
559.61894975598489
 20
605.94487673671097
 30
0.0
 11
551.11694975598493
 21
605.94487673671097
 31
0.0
  0
LINE
  5
37
  8
BRANDLIJN
 39
1.0
 10
559.61894975598489
 20
606.44487673671097
 30
0.0
 11
559.61894975598489
 21
605.94487673671097
 31
0.0
  0
LINE
  5
38
  8
BRANDLIJN
 39
1.0
 10
528.11266657098486
 20
606.44487673671097
 30
0.0
 11
559.61894975598489
 21
606.44487673671097
 31
0.0
  0
LINE
  5
39
  8
BRANDLIJN
 39
1.0
 10
528.11266657098486
 20
633.44487673671108
 30
0.0
 11
528.11266657098486
 21
606.44487673671097
 31
0.0
  0
LINE
  5
3A
  8
BRANDLIJN
 39
1.0
 10
559.61894975598489
 20
633.44487673671108
 30
0.0
 11
528.11266657098486
 21
633.44487673671108
 31
0.0
  0
LINE
  5
3B
  8
BRANDLIJN
 39
1.0
 10
559.61894975598489
 20
633.94487673671108
 30
0.0
 11
559.61894975598489
 21
633.44487673671108
 31
0.0
  0
LINE
  5
3C
  8
BRANDLIJN
 39
1.0
 10
551.11694975598493
 20
633.94487673671108
 30
0.0
 11
559.61894975598489
 21
633.94487673671108
 31
0.0
  0
LINE
  5
3D
  8
BRANDLIJN
 39
1.0
 10
551.11694975598493
 20
641.45015992171091
 30
0.0
 11
551.11694975598493
 21
633.94487673671108
 31
0.0
  0
LINE
  5
3E
  8
BRANDLIJN
 39
1.0
 10
546.11694975598436
 20
641.45015992171091
 30
0.0
 11
551.11694975598493
 21
641.45015992171091
 31
0.0
  0
LINE
  5
3F
  8
BRANDLIJN
 39
1.0
 10
546.11694975598436
 20
660.9491599217107
 30
0.0
 11
546.11694975598436
 21
641.45015992171091
 31
0.0
  0
LINE
  5
40
  8
BRANDLIJN
 39
1.0
 10
551.11694975598493
 20
660.9491599217107
 30
0.0
 11
546.11694975598436
 21
660.9491599217107
 31
0.0
  0
LINE
  5
41
  8
BRANDLIJN
 39
1.0
 10
551.11694975598493
 20
663.9491599217107
 30
0.0
 11
551.11694975598493
 21
660.9491599217107
 31
0.0
  0
LINE
  5
42
  8
BRANDLIJN
 39
1.0
 10
993.11694975598436
 20
663.9491599217107
 30
0.0
 11
551.11694975598493
 21
663.9491599217107
 31
0.0
  0
LINE
  5
43
  8
BRANDLIJN
 39
1.0
 10
993.11694975598436
 20
660.9491599217107
 30
0.0
 11
993.11694975598436
 21
663.9491599217107
 31
0.0
  0
LINE
  5
44
  8
BRANDLIJN
 39
1.0
 10
998.11694975598448
 20
660.9491599217107
 30
0.0
 11
993.11694975598436
 21
660.9491599217107
 31
0.0
  0
LINE
  5
45
  8
BRANDLIJN
 39
1.0
 10
998.11694975598448
 20
641.45015992171091
 30
0.0
 11
998.11694975598448
 21
660.9491599217107
 31
0.0
  0
LINE
  5
46
  8
BRANDLIJN
 39
1.0
 10
993.11694975598436
 20
641.45015992171091
 30
0.0
 11
998.11694975598448
 21
641.45015992171091
 31
0.0
  0
LINE
  5
47
  8
BRANDLIJN
 39
1.0
 10
993.11694975598436
 20
633.94487673671108
 30
0.0
 11
993.11694975598436
 21
641.45015992171091
 31
0.0
  0
LINE
  5
48
  8
BRANDLIJN
 39
1.0
 10
984.61494975598487
 20
633.94487673671108
 30
0.0
 11
993.11694975598436
 21
633.94487673671108
 31
0.0
  0
LINE
  5
49
  8
BRANDLIJN
 39
1.0
 10
984.61494975598487
 20
633.44487673671108
 30
0.0
 11
984.61494975598487
 21
633.94487673671108
 31
0.0
  0
LINE
  5
4A
  8
BRANDLIJN
 39
1.0
 10
1016.121232940985
 20
633.44487673671108
 30
0.0
 11
984.61494975598487
 21
633.44487673671108
 31
0.0
  0
LINE
  5
4B
  8
BRANDLIJN
 39
1.0
 10
1016.121232940985
 20
606.44487673671097
 30
0.0
 11
1016.121232940985
 21
633.44487673671108
 31
0.0
  0
LINE
  5
4C
  8
BRANDLIJN
 39
1.0
 10
984.61494975598487
 20
606.44487673671097
 30
0.0
 11
1016.121232940985
 21
606.44487673671097
 31
0.0
  0
CIRCLE
  5
4D
  8
BRANDLIJN
 39
1.0
 10
976.11694975598436
 20
585.94059355171066
 30
0.0
 40
5.5
  0
CIRCLE
  5
4E
  8
BRANDLIJN
 39
1.0
 10
568.11694975598436
 20
585.94059355171066
 30
0.0
 40
5.5
  0
CIRCLE
  5
4F
  8
BRANDLIJN
 39
1.0
 10
568.11694975598436
 20
653.94915992171093
 30
0.0
 40
5.5
  0
CIRCLE
  5
50
  8
BRANDLIJN
 39
1.0
 10
976.11694975598436
 20
653.94915992171093
 30
0.0
 40
5.5
  0
CIRCLE
  5
51
  8
BRANDLIJN
 39
1.0
 10
535.1126665709844
 20
619.94487673671131
 30
0.0
 40
4.5
  0
CIRCLE
  5
52
  8
BRANDLIJN
 39
1.0
 10
1009.121232940985
 20
619.94487673671131
 30
0.0
 40
4.5
  0
ENDSEC
  0
EOF
